<svg width="134" height="104" viewBox="0 0 134 104" fill="none" xmlns="http://www.w3.org/2000/svg">
<path d="M0 0V9.75C0 36.725 14.365 60.32 35.75 73.45V104H133.25V91C133.25 73.71 98.605 65 81.25 65H79.625C48.75 65 22.75 39 22.75 9.75V0M81.25 0C74.3544 0 67.7412 2.73928 62.8652 7.61522C57.9893 12.4912 55.25 19.1044 55.25 26C55.25 32.8956 57.9893 39.5088 62.8652 44.3848C67.7412 49.2607 74.3544 52 81.25 52C88.1456 52 94.7588 49.2607 99.6348 44.3848C104.511 39.5088 107.25 32.8956 107.25 26C107.25 19.1044 104.511 12.4912 99.6348 7.61522C94.7588 2.73928 88.1456 0 81.25 0Z" fill="#9796A1"/>
</svg>
